# xmcd
#
# Track frame offsets:
# 150
# 15923
# 35110
# 59874
# 77181
# 95775
#
# Disc length: 1646 seconds
#
#
# Revision: 2
# Processed by: cddbd v1.5.1PL2 Copyright (c) Steve Scherf et al.
# Submitted via: FreeRIP 2.941 
#
DISCID=4e066c06
DTITLE=The Hiptones - Meet Me At The Sands
DYEAR=2002
DGENRE=Blues
TTITLE0=Where's My Baby?
TTITLE1=Oh Baby La
TTITLE2=Shotgun
TTITLE3=Bon Ton Roulet
TTITLE4=Good Liquor
TTITLE5=F Lee Bailey
EXTD=As heard on\nBluesfestRadio.com
EXTT0=
EXTT1=
EXTT2=
EXTT3=
EXTT4=
EXTT5=
PLAYORDER=
